#!OML:ASF I:\Actors\actors\Patient Classification 1\Patient 1\Session 1\Subject1.ASF
:FULLY-SPECIFIED
:DEGREES
1598
root -0.00943057 17.5557 7.69631 15.9181 -5.27032 -9.60459
lowerback 7.41503 1.74288 8.71129
upperback -1.20937 3.00461 -2.63726
thorax -4.86145 1.20226 -8.05303
lowerneck -11.4943 4.43556 7.16341
upperneck 32.5847 12.6533 -22.698
head 15.6652 3.75817 -9.04473
rclavicle -2.18663e-014 -3.02153e-014
rhumerus 31.9021 28.6301 -30.0507
rradius 127.844
rwrist 14.4422
rhand 40.2813 -49.3885
rfingers 7.12502
rthumb 62.628 -60.0779
lclavicle -2.18663e-014 -3.02153e-014
lhumerus 1.78678 -63.841 50.1806
lradius 108.467
lwrist 0.208253
lhand -34.099 -30.765
lfingers 7.12502
lthumb -7.27515 -0.910061
rfemur -14.6436 33.3683 17.7201
rtibia 0.141561
rfoot -9.23364 -30.1586
rtoes 2.50504
lfemur -3.48832 -62.2954 -2.55353
ltibia -4.70004
lfoot -74.9902 62.4169
ltoes 38.0297
1599
root -0.0100061 17.5556 7.69301 15.9958 -5.49414 -9.56968
lowerback 7.60808 1.7491 8.71482
upperback -1.3011 3.03309 -2.6362
thorax -5.06308 1.20124 -8.07148
lowerneck -12.307 4.37392 6.61951
upperneck 32.1894 12.6188 -22.7005
head 15.628 3.6337 -8.88561
rclavicle 1.35174e-014 -1.11319e-014
rhumerus 32.3465 27.5534 -30.9187
rradius 126.576
rwrist 10.8632
rhand 31.5217 -50.4621
rfingers 7.12502
rthumb 55.0695 -68.5503
lclavicle 1.35174e-014 -1.11319e-014
lhumerus 1.20378 -63.908 50.7946
lradius 108.458
lwrist 0.18293
lhand -34.0557 -30.8683
lfingers 7.12502
lthumb -7.23336 -1.0119
rfemur -14.7837 33.335 17.5909
rtibia 0.114709
rfoot -9.06396 -29.9533
rtoes 2.29515
lfemur -3.42203 -62.0602 -2.6754
ltibia -4.74307
lfoot -75.2471 61.984
ltoes 38.5399
1600
root -0.010552 17.5555 7.69227 16.0448 -5.69105 -9.49903
lowerback 7.6822 1.72939 8.61682
upperback -1.36681 3.00646 -2.62317
thorax -5.18569 1.18172 -8.00526
lowerneck -12.8387 4.29102 6.19958
upperneck 31.7579 12.5406 -22.7889
head 15.512 3.51694 -8.79802
rclavicle -1.90833e-014 -1.74931e-014
rhumerus 32.9145 26.3508 -32.0743
rradius 125.671
rwrist 5.41721
rhand 23.745 -51.9825
rfingers 7.12502
rthumb 48.0065 -74.1923
lclavicle -1.90833e-014 -1.74931e-014
lhumerus 0.547251 -63.9411 51.4525
lradius 108.455
lwrist -0.0271704
lhand -34.1259 -30.6752
lfingers 7.12502
lthumb -7.30113 -0.821128
rfemur -14.8598 33.4614 17.4284
rtibia 0.0558081
rfoot -8.93312 -29.9545
rtoes 2.14133
lfemur -3.27802 -61.872 -2.90933
ltibia -4.79006
lfoot -75.4069 61.7069
ltoes 38.8832
1601
root -0.00966806 17.5558 7.69144 16.0817 -5.84796 -9.42801
lowerback 7.70702 1.70551 8.50655
upperback -1.47493 2.96827 -2.64517
thorax -5.32653 1.15397 -7.96757
lowerneck -12.871 4.14298 5.92617
upperneck 31.292 12.2619 -22.7635
head 15.2006 3.37431 -8.70916
rclavicle 0 -2.38542e-014
rhumerus 33.3996 25.1915 -33.4669
rradius 125.26
rwrist 0.532322
rhand 16.9196 -53.9137
rfingers 7.12502
rthumb 41.6554 -78.6181
lclavicle 0 -2.38542e-014
lhumerus -0.101213 -64.0927 52.0655
lradius 108.438
lwrist -0.14662
lhand -34.1379 -30.4788
lfingers 7.12502
lthumb -7.31272 -0.625156
rfemur -14.9251 33.5817 17.2772
rtibia 0.019297
rfoot -8.89494 -29.9926
rtoes 2.20712
lfemur -3.16261 -61.7218 -3.11999
ltibia -4.82444
lfoot -75.498 61.5011
ltoes 39.1229
1602
root -0.0085004 17.5571 7.68776 16.1249 -5.98092 -9.35479
lowerback 7.7917 1.74975 8.44519
upperback -1.54796 3.02663 -2.72128
thorax -5.43993 1.17456 -8.02865
lowerneck -12.8982 3.88502 5.65194
upperneck 31.0298 11.8068 -22.571
head 14.9309 3.16723 -8.59613
rclavicle -4.81059e-014 7.95139e-015
rhumerus 33.7639 23.7177 -34.9162
rradius 125.455
rwrist -3.28146
rhand 11.2964 -55.9697
rfingers 7.12502
rthumb 36.3549 -82.1983
lclavicle -4.81059e-014 7.95139e-015
lhumerus 0.0122749 -64.3573 52.1092
lradius 108.328
lwrist -0.0549238
lhand -33.9989 -30.744
lfingers 7.12502
lthumb -7.17851 -0.88573
rfemur -15.0231 33.5661 17.1371
rtibia 0.0208381
rfoot -8.86281 -29.8872
rtoes 2.2759
lfemur -3.19313 -61.5814 -3.20903
ltibia -4.82408
lfoot -75.4966 61.3946
ltoes 39.2332
1603
root -0.00930904 17.5581 7.68249 16.1707 -6.05575 -9.33183
lowerback 7.8109 1.81268 8.40589
upperback -1.50337 3.10546 -2.74828
thorax -5.38778 1.21907 -8.04257
lowerneck -12.9104 3.51571 5.50033
upperneck 30.9428 11.3062 -22.707
head 14.7837 2.91978 -8.70133
rclavicle 1.43125e-014 -1.74931e-014
rhumerus 34.2789 21.9289 -36.2712
rradius 126.001
rwrist -6.02718
rhand 7.45854 -57.2749
rfingers 7.12502
rthumb 32.7121 -84.3354
lclavicle 1.43125e-014 -1.74931e-014
lhumerus 0.630555 -64.5065 51.823
lradius 108.16
lwrist 0.0184539
lhand -33.9143 -30.8972
lfingers 7.12502
lthumb -7.09688 -1.03621
rfemur -15.1263 33.5158 17.073
rtibia 0.0414181
rfoot -8.80928 -29.7777
rtoes 2.17818
lfemur -3.31102 -61.4704 -3.13791
ltibia -4.82895
lfoot -75.3926 61.4692
ltoes 39.1045
1604
root -0.0122944 17.5587 7.67639 16.1921 -6.07639 -9.36798
lowerback 7.80282 1.81931 8.35808
upperback -1.41247 3.1046 -2.77328
thorax -5.28706 1.22875 -8.03777
lowerneck -12.7051 3.12299 5.64979
upperneck 31.0276 10.7764 -23.0128
head 14.6918 2.68558 -8.97555
rclavicle -3.97569e-015 3.18055e-014
rhumerus 35.041 20.0553 -37.8598
rradius 126.807
rwrist -8.98082
rhand 5.84194 -57.8428
rfingers 7.12502
rthumb 31.1727 -85.2113
lclavicle -3.97569e-015 3.18055e-014
lhumerus 1.18719 -64.5022 51.4148
lradius 108.078
lwrist 0.0438765
lhand -33.9451 -30.6705
lfingers 7.12502
lthumb -7.12653 -0.810509
rfemur -15.1965 33.407 17.1197
rtibia 0.0763955
rfoot -8.71094 -29.6644
rtoes 2.09945
lfemur -3.42517 -61.3981 -2.98449
ltibia -4.82946
lfoot -75.2696 61.567
ltoes 38.9293
